<?xml version="1.0" encoding="UTF-8"?>
<svg id="Layer_1" data-name="Layer 1" xmlns="http://www.w3.org/2000/svg" viewBox="0 0 2000 2416.78">
  <defs>
  </defs>
  <path class="cls-4" d="m552.39,565.76c5.16,1.38,8.22,6.68,6.84,11.83l-51.21,191.15c-1.38,5.16-6.69,8.22-11.85,6.84-5.16-1.38-8.22-6.69-6.84-11.85l51.22-191.15c1.38-5.16,6.68-8.22,11.84-6.83,0,0,0,0,0,0m29.16,39.35c3.57-3.97,9.68-4.29,13.65-.72l22.39,20.16c9.5,8.53,17.36,15.62,22.78,22.04,5.67,6.77,9.72,14.02,9.72,23s-4.03,16.22-9.72,22.97c-5.41,6.43-13.28,13.52-22.78,22.05l-22.39,20.16c-3.97,3.57-10.08,3.25-13.66-.72-3.57-3.97-3.25-10.08.72-13.66l21.87-19.68c10.16-9.14,17-15.34,21.44-20.6,4.25-5.07,5.18-8.02,5.18-10.54s-.93-5.47-5.18-10.53c-4.43-5.27-11.28-11.47-21.44-20.6l-21.87-19.68c-3.97-3.57-4.3-9.68-.73-13.65,0,0,0,0,0-.01m-115.23,13.66c3.97-3.57,4.29-9.69.72-13.66s-9.69-4.29-13.66-.72l-22.39,20.16c-9.5,8.53-17.36,15.62-22.78,22.04-5.67,6.77-9.72,14.02-9.72,23s4.03,16.22,9.72,22.97c5.41,6.43,13.28,13.52,22.78,22.05l22.39,20.16c3.97,3.57,10.08,3.25,13.66-.72s3.25-10.08-.72-13.66l-21.87-19.68c-10.16-9.14-17-15.34-21.44-20.6-4.25-5.07-5.18-8.02-5.18-10.54s.93-5.47,5.18-10.53c4.43-5.27,11.28-11.47,21.44-20.6l21.87-19.68Z"/>
  <g>
    <path class="cls-1" d="m941.67,139.89c18.21,0,32.97-14.76,32.97-32.97V40.97c0-18.21,14.76-32.97,32.97-32.97h197.83c18.21,0,32.97,14.76,32.97,32.97v65.94c0,18.21,14.76,32.97,32.97,32.97m-329.72,0c18.21,0,32.97,14.76,32.97,32.97v65.94c0,18.21,14.76,32.97,32.97,32.97h197.83c18.21,0,32.97-14.76,32.97-32.97v-65.94c0-18.21,14.76-32.97,32.97-32.97"/>
    <path class="cls-1" d="m1057.07,205.83V73.94h57.7c18.21,0,32.97,14.76,32.97,32.97s-14.76,32.97-32.97,32.97h-57.7,65.94c18.21,0,32.97,14.76,32.97,32.97s-14.76,32.97-32.97,32.97h-65.94Z"/>
  </g>
  <path class="cls-4" d="m109.8,132.85v-7.03c-3.88,0-7.03,3.15-7.03,7.04,0,.2,0,.39.02.59l7.01-.59Zm196.95,0l7.01.59c.33-3.87-2.55-7.27-6.42-7.6-.2-.02-.39-.02-.59-.02v7.03Zm-14.07,168.81l2.22,6.67c2.67-.89,4.55-3.29,4.78-6.09l-7.01-.58Zm-84.41,28.14l-2.22,6.67c1.44.48,3,.48,4.45,0l-2.22-6.67Zm-84.41-28.14l-7.01.58c.23,2.8,2.11,5.2,4.78,6.09l2.22-6.67Zm126.61-126.61h7.03v-7.03h-7.03v7.03Zm0,84.41l2.22,6.67,4.81-1.6v-5.06h-7.03Zm-42.2,14.07l-2.22,6.67,2.22.75,2.22-.75-2.22-6.67Zm-42.2-14.07h-7.03v5.06l4.81,1.6,2.22-6.67Zm-56.27-119.57h196.95v-14.07H109.8v14.07Zm189.94-7.62l-14.07,168.81,14.01,1.17,14.07-168.81-14.01-1.17Zm-9.28,162.73l-84.41,28.14,4.45,13.34,84.41-28.14-4.45-13.34Zm-79.96,28.14l-84.41-28.14-4.45,13.34,84.41,28.14,4.45-13.34Zm-79.62-22.04l-14.07-168.81-14.01,1.17,14.07,168.81,14.01-1.17Zm119.6-133.07h-91.44v14.07h91.44v-14.07Zm-63.3,56.27h63.3v-14.07h-63.3v14.07Zm56.27-7.03v42.2h14.07v-42.2h-14.07Zm4.81,35.53l-42.2,14.07,4.45,13.34,42.2-14.07-4.45-13.34Zm-37.76,14.07l-42.2-14.07-4.45,13.34,42.2,14.07,4.45-13.34Zm-37.39-7.4v-21.1h-14.07v21.1h14.07Zm70.34-84.41v42.2h14.07v-42.2h-14.07Z"/>
  <path class="cls-4" d="m963.39,1351.69c-24.63.04-46.29,16.28-53.25,39.91l-73.23-10.41c-3.34-.47-6.39-2.14-8.59-4.7l-61.97-72.42c27.35-13.86,38.29-47.27,24.42-74.62-13.86-27.35-47.27-38.29-74.62-24.42-27.35,13.86-38.29,47.27-24.42,74.62,7.22,14.25,20.23,24.7,35.71,28.67v142.27c-29.69,7.67-47.54,37.95-39.88,67.64,7.67,29.69,37.95,47.54,67.64,39.88,29.69-7.67,47.54-37.95,39.88-67.64-5.05-19.56-20.32-34.83-39.88-39.88v-116.89l52.05,60.73c6.58,7.67,15.72,12.69,25.73,14.12l76.34,10.9c6.76,29.91,36.48,48.68,66.39,41.92,29.91-6.76,48.68-36.48,41.92-66.39-5.72-25.34-28.25-43.32-54.23-43.29m-194.32,152.68c0,15.33-12.43,27.76-27.76,27.76s-27.76-12.43-27.76-27.76,12.43-27.76,27.76-27.76,27.76,12.43,27.76,27.76m194.32-69.4c-15.33,0-27.76-12.43-27.76-27.76s12.43-27.76,27.76-27.76,27.76,12.43,27.76,27.76-12.43,27.76-27.76,27.76"/>
  <path class="cls-4" d="m241.62,1124.62c-11.45-1.05-26.14-3.27-40.35-18.78v31.91c26.09,16.96,70.97,13.85,86.61-6.54,9.3-12.12,13.13-28.34,6.25-46.72-16.22-32.67-54.76-34.7-65.97-55.33-12.38-33.42,38.69-39.45,63.22-16.94v-30c-10.45-6.75-27.08-7.48-38.74-6.85-30.77,1.66-51.45,19.54-51.14,46.18-1.33,37.18,41.13,46.75,62.45,63.96,14.48,12.29,13.44,42.08-22.33,39.11m-121.5,21.31v-144.36h-46.51v-23.87h118.77v23.87h-46.6v144.36h-25.66Zm204.45-271.49v302.93H21.64v-302.93h302.93Zm21.64-21.64H0v346.2h346.2v-346.2Z"/>
  <path class="cls-4" d="m979.09,2269.44c0-18.78,15.22-34,34-34h34c6.26,0,11.33,5.07,11.33,11.33s-5.07,11.33-11.33,11.33h-34c-6.26,0-11.33,5.07-11.33,11.33v11.33c0,6.26,5.07,11.33,11.33,11.33h11.33c18.78,0,34,15.22,34,34v11.33c0,18.78-15.22,34-34,34h-34c-6.26,0-11.33-5.07-11.33-11.33s5.07-11.33,11.33-11.33h34c6.26,0,11.33-5.07,11.33-11.33v-11.33c0-6.26-5.07-11.33-11.33-11.33h-11.33c-18.78,0-34-15.22-34-34v-11.33Zm-11.33-22.67c0-6.26-5.07-11.33-11.33-11.33s-11.33,5.07-11.33,11.33v90.67c0,6.26-5.07,11.33-11.33,11.33h-22.67c-6.26,0-11.33,5.07-11.33,11.33s5.07,11.33,11.33,11.33h22.67c18.78,0,34-15.22,34-34v-90.67Zm-136.01-45.34c0-31.3,25.37-56.67,56.67-56.67h158.68c31.3,0,56.67,25.37,56.67,56.67v158.68c0,31.3-25.37,56.67-56.67,56.67h-158.68c-31.3,0-56.67-25.37-56.67-56.67v-158.68Zm56.67-34c-18.78,0-34,15.22-34,34v158.68c0,18.78,15.22,34,34,34h158.68c18.78,0,34-15.22,34-34v-158.68c0-18.78-15.22-34-34-34h-158.68Z"/>
  <path class="cls-4" d="m1788.44,730.49l3.86-13.54c-2.53-.72-5.2-.72-7.73,0l3.86,13.54Zm-197.46,56.42l-3.86-13.54c-6.61,1.88-10.9,8.26-10.15,15.09l14.02-1.55Zm28.21,253.87l-14.02,1.55c.53,4.75,3.43,8.92,7.7,11.06l6.32-12.61Zm169.25,84.62l-6.32,12.61c3.98,1.99,8.66,1.99,12.64,0l-6.32-12.61Zm169.25-84.62l6.32,12.61c4.28-2.14,7.17-6.3,7.7-11.06l-14.02-1.55Zm28.21-253.87l14.02,1.55c.76-6.84-3.53-13.23-10.15-15.12l-3.86,13.57Zm-197.46,14.1l12.92-5.64-12.92-29.53-12.92,29.53,12.92,5.64Zm-3.86-84.06l-197.46,56.42,7.73,27.08,197.46-56.42-7.73-27.08Zm-207.61,71.48l28.21,253.87,28.04-3.1-28.21-253.87-28.04,3.1Zm35.91,264.93l169.25,84.62,12.64-25.22-169.25-84.62-12.64,25.22Zm181.89,84.62l169.25-84.62-12.64-25.22-169.25,84.62,12.64,25.22Zm176.95-95.68l28.21-253.87-28.04-3.1-28.21,253.87,28.04,3.1Zm18.05-268.99l-197.46-56.42-7.73,27.14,197.46,56.42,7.73-27.14Zm-287.13,259.01l98.73-225.66-25.84-11.28-98.73,225.66,25.84,11.28Zm72.89-225.66l98.73,225.66,25.84-11.28-98.73-225.66-25.84,11.28Zm-57.6,163.61h141.04v-28.21h-141.04v28.21Z"/>
  <path class="cls-3" d="m1412.25,1641.26h-14.49v-79.01c5.23-.95,12.47-1.66,22.34-1.66,10.69,0,18.53,2.26,23.65,6.53,4.75,3.92,7.83,10.22,7.83,17.7s-2.38,13.9-6.89,18.18c-5.82,5.82-14.97,8.55-25.31,8.55-2.73,0-5.23-.12-7.13-.48v30.18Zm8.44-69.5c-4.04,0-6.89.36-8.42.71v27.09c1.77.48,4.15.59,7.13.59,10.92,0,17.57-5.35,17.57-14.73s-6.18-13.66-16.28-13.66"/>
  <path class="cls-4" d="m1470.25,1642.57c-7.02,0-13.31-1.78-17.58-4.16l2.85-10.57c3.33,2.02,9.61,4.16,14.85,4.16,6.42,0,9.27-2.61,9.27-6.42s-2.38-5.94-9.5-8.44c-11.29-3.92-16.04-10.1-15.92-16.87,0-10.22,8.42-18.18,21.86-18.18,6.42,0,11.99,1.66,15.33,3.45l-2.85,10.34c-3.74-2.1-7.95-3.25-12.24-3.33-5.23,0-8.08,2.49-8.08,6.06s2.73,5.47,10.1,8.08c10.46,3.8,15.33,9.15,15.45,17.7,0,10.46-8.21,18.18-23.52,18.18"/>
  <path class="cls-3" d="m1500.42,1504.45c-37.74-4.18-75.84-4.18-113.58,0-21.73,2.43-39.28,19.55-41.83,41.39-4.48,38.28-4.48,76.96,0,115.25,2.55,21.84,20.09,38.96,41.83,41.39,37.75,4.18,75.84,4.18,113.58,0,21.73-2.43,39.28-19.55,41.83-41.39,4.48-38.28,4.48-76.96,0-115.25-2.55-21.84-20.09-38.96-41.83-41.39m-111.79,16.09c36.55-4.05,73.44-4.05,110,0,14.37,1.62,25.87,12.95,27.54,27.19,4.33,37.03,4.33,74.44,0,111.46-1.78,14.34-13.18,25.59-27.54,27.17-36.55,4.05-73.44,4.05-110,0-14.36-1.59-25.76-12.83-27.54-27.17-4.33-37.03-4.33-74.44,0-111.46,1.78-14.34,13.18-25.59,27.54-27.17"/>
  <path class="cls-4" d="m354,1734v73.94h-18.83v-73.94h18.83Zm-19.89-20.65c0-5.77,4.24-10.17,10.46-10.17s10.34,4.4,10.49,10.17c0,5.62-4.11,10.02-10.63,10.02s-10.32-4.4-10.32-10.02"/>
  <path class="cls-3" d="m308.46,1807.94l-9.26-29h-32.49l-8.81,29h-19.28l32.8-102.34h23.84l33.25,102.34h-20.04Zm-30.82-68.32l-7.9,25.2h26.27l-8.05-25.2c-1.6-5.04-3-10.57-4.28-15.64-.29-1.16-.59-2.33-.88-3.49h-.3c-.52,2.03-1.04,4.2-1.57,6.42-1.02,4.28-2.08,8.72-3.29,12.71"/>
  <path class="cls-3" d="m372.29,1633.1c-48.24-5.35-96.92-5.35-145.15,0-27.77,3.11-50.2,24.98-53.46,52.89-5.72,48.93-5.72,98.35,0,147.28,3.26,27.91,25.67,49.79,53.46,52.89,48.24,5.34,96.92,5.34,145.15,0,27.77-3.11,50.2-24.98,53.46-52.89,5.72-48.93,5.72-98.35,0-147.28-3.26-27.91-25.67-49.79-53.46-52.89m-142.86,20.57c46.71-5.18,93.86-5.18,140.57,0,18.36,2.07,33.06,16.55,35.2,34.74,5.53,47.32,5.53,95.13,0,142.45-2.28,18.33-16.84,32.7-35.2,34.73-46.71,5.18-93.86,5.18-140.57,0-18.36-2.03-32.92-16.4-35.2-34.73-5.53-47.32-5.53-95.13,0-142.45,2.28-18.33,16.84-32.7,35.2-34.73"/>
  <g>
    <path class="cls-2" d="m1165.59,789.63h-59.06c-32.62,0-59.07,26.45-59.07,59.07s26.45,59.07,59.07,59.07h59.06v-118.14Zm0,118.14h-59.06c-32.62,0-59.06,26.44-59.06,59.06s26.44,59.06,59.06,59.06h59.06v-118.13Z"/>
    <path class="cls-2" d="m1283.74,966.84c0,32.62-26.45,59.07-59.07,59.07s-59.07-26.45-59.07-59.07h0c0-32.62,26.45-59.07,59.07-59.07s59.07,26.45,59.07,59.07Zm-177.21,59.08h59.06v59.06c0,32.62-26.46,59.05-59.08,59.05-32.62,0-59.05-26.46-59.05-59.08,0-32.61,26.45-59.05,59.06-59.05v.02Z"/>
    <path class="cls-2" d="m1165.59,789.63h59.06c32.62,0,59.07,26.45,59.07,59.07s-26.45,59.07-59.07,59.07h-59.06v-118.14Z"/>
  </g>
</svg>