<svg id="Layer_2" data-name="Layer 2" xmlns="http://www.w3.org/2000/svg" width="32" height="32" viewBox="0 0 32 32">
  <defs>
    <style>
      .cls-1 {
        fill: #000;
      }
      .cls-2 {
        fill: #fff;
      }
    </style>
  </defs>
  <g id="Layer_1-2" data-name="Layer 1">
      <circle class="cls-2" cx="16" cy="16" r="16"/>
    <path class="cls-1" d="m27.95,23.23s-1.06-1.28-2.55-2.51c0,0-1.21-1.53-3.04-2.67,0,0-2.49-2.6-6.07-4.35,0,0-2.7-1.35-7.61-.71,0,0-3.64.52-5.49,2.1,0,0-2.13,2.1-.26,3.7,0,0,1.74,2.14,7.4,2.22,0,0,5.32.4,9.1-.29,0,0,2.93-.34,4.45-.93l1.21-.61s.89-1.29.57-2.78c0,0-.59-2.39-4.48-1.66,0,0-5.62,1.41-7.84,1.29l-.22-.57,1.83-1.24s3.23-1.19,3.79-1.56c0,0,2.42-1.58,2.88-2.14,0,0,1.28-1.37,2.05-2.31,0,0,.84-1.52.23-2.44,0,0-1.9,2.73-3.01,3.46,0,0-1.16,1.1-3.08,2.21,0,0-5.6,2.35-6.25,3.81,0,0-.52,1.74,1.09,2.11,0,0,3.22,0,6.71-1.21,0,0,3.65-1.27,4.54-.69,0,0,.77.33.95,1.53,0,0,.53,1.28-2.21,1.82,0,0-4.43,1.2-9.16,1.16,0,0-4.53.07-7.65-.82,0,0-2.56-.73-2.35-2.15,0,0-.11-.94,2-1.89,0,0,1.68-1.15,5.27-1.14,0,0,3.05,0,5.36,1.02,0,0,3.01,1.72,4.47,3.08,0,0,1.61,1.2,3.99,3.09,0,0,2.49,2.1,3.41,2.09Z"/>
  </g>
</svg>